PathFileType	4	(X/Y/Z)	C:\Users\Basilio\Documents\Thesis Gigler\squatting_fais\c3dfiles\041\SLS_pre_back4\markers_experimental.trc
DataRate	CameraRate	NumFrames	NumMarkers	Units	OrigDataRate	OrigDataStartFrame	OrigNumFrames
200.000000	200.000000	4	64	mm	200.000000	318	1272
Frame#	Time	FHD			LBHD			RBHD			C7			T10			CLAV			LSHO			LUUPA			LMUPA			LDUPA			LLEP			LMEP			LRAD			LUL			LRFIN			RSHO			RUPA1			RMUPA			RDUPA			RLEP			RMEP			RRAD			RUL			RUFIN			LASI			RASI			USACR			LSACR			RSACR			LTHI1			LTHI2			LTHI3			LTHI4			LLFC			LMFC			LTIB1			LTIB2			LTIB3			LTIB4			LLMAL			LMMAL			LHEE			LMT1			LMT2			LMT5			RTHI			RTHI2			RTHI3			RTHI4			RLFC			RMFC			RTIB1			RTIB2			RTIB3			RTIB4			RLMAL			RMMAL			RHEE			RMT1			RMT2			RMT5			*61			*62			*63			
		X1	Y1	Z1	X2	Y2	Z2	X3	Y3	Z3	X4	Y4	Z4	X5	Y5	Z5	X6	Y6	Z6	X7	Y7	Z7	X8	Y8	Z8	X9	Y9	Z9	X10	Y10	Z10	X11	Y11	Z11	X12	Y12	Z12	X13	Y13	Z13	X14	Y14	Z14	X15	Y15	Z15	X16	Y16	Z16	X17	Y17	Z17	X18	Y18	Z18	X19	Y19	Z19	X20	Y20	Z20	X21	Y21	Z21	X22	Y22	Z22	X23	Y23	Z23	X24	Y24	Z24	X25	Y25	Z25	X26	Y26	Z26	X27	Y27	Z27	X28	Y28	Z28	X29	Y29	Z29	X30	Y30	Z30	X31	Y31	Z31	X32	Y32	Z32	X33	Y33	Z33	X34	Y34	Z34	X35	Y35	Z35	X36	Y36	Z36	X37	Y37	Z37	X38	Y38	Z38	X39	Y39	Z39	X40	Y40	Z40	X41	Y41	Z41	X42	Y42	Z42	X43	Y43	Z43	X44	Y44	Z44	X45	Y45	Z45	X46	Y46	Z46	X47	Y47	Z47	X48	Y48	Z48	X49	Y49	Z49	X50	Y50	Z50	X51	Y51	Z51	X52	Y52	Z52	X53	Y53	Z53	X54	Y54	Z54	X55	Y55	Z55	X56	Y56	Z56	X57	Y57	Z57	X58	Y58	Z58	X59	Y59	Z59	X60	Y60	Z60	X61	Y61	Z61	X62	Y62	Z62	X63	Y63	Z63	X64	Y64	Z64	

319	1.59	-144.0852355957032	1738.348388671875	-1122.550537109375	-317.7283020019532	1658.890747070313	-1193.752075195313	-294.7479858398438	1664.546508789063	-1042.04931640625	-351.9927368164063	1527.311401367188	-1126.683349609375	-426.4294433593751	1228.9736328125	-1094.510131835938	-196.0225219726563	1456.07080078125	-1131.40478515625	-278.5710449218751	1533.291870117188	-1265.1259765625	-172.3204498291016	1516.427734375	-1391.166870117188	-130.0536651611328	1533.15576171875	-1373.477905273438	-114.1597137451172	1517.3828125	-1430.215209960938	-69.52651977539064	1515.306884765625	-1448.413696289063	-30.54585456848145	1447.053955078125	-1414.194091796875	210.4684295654297	1545.119018554688	-1463.815185546875	186.3001556396485	1552.707641601563	-1532.66455078125	264.5961914062501	1596.406616210938	-1476.124633789063	-263.9094848632813	1551.542724609375	-1010.488952636719	-120.3257217407227	1553.128051757813	-891.572204589844	-103.3059234619141	1578.911254882813	-931.6458740234377	-55.0896682739258	1578.965576171875	-897.3118896484377	-10.31009960174561	1587.237060546875	-898.5938110351565	15.20893669128418	1507.838989257813	-919.7958984375002	250.9070281982422	1605.270629882813	-981.609069824219	251.2739868164063	1626.670288085938	-909.1038818359377	325.5968627929688	1634.344360351563	-994.039733886719	-285.8525390625001	1016.251525878906	-1192.728637695313	-297.6477050781251	1011.121948242188	-966.903991699219	-455.8563537597657	1119.508544921875	-1089.38671875	-474.7654113769532	1096.508544921875	-1117.602661132813	-480.6829528808595	1096.264892578125	-1063.371826171875	-366.2752990722657	815.3463134765627	-1254.385864257813	-314.8484497070313	749.5175781250001	-1239.41259765625	-271.4138488769532	763.3734130859376	-1223.035400390625	-331.5101318359376	690.8677368164064	-1226.476806640625	-285.4757385253907	524.3533935546876	-1187.430908203125	-287.8899230957032	518.4865112304689	-1069.331787109375	-277.3247070312501	337.9737854003907	-1111.429443359375	-325.1846008300782	293.6615905761719	-1173.60791015625	-289.7697143554688	289.2245483398438	-1143.861938476563	-304.1513977050782	216.3455963134766	-1103.7958984375	-371.7160034179688	126.2279586791992	-1137.986938476563	-341.4632873535157	137.9014892578125	-1054.190185546875	-441.4798278808595	111.4722900390625	-1098.416259765625	-239.0238647460938	63.14881515502931	-1051.040405273438	-227.4310607910157	54.72180938720705	-1094.731323242188	-270.2114868164063	39.63573837280274	-1152.3330078125	-420.1082153320314	762.9869384765626	-891.4163818359377	-379.7034301757813	711.0634765625001	-880.9171142578127	-346.9054565429688	713.8166503906251	-880.8669433593752	-401.4403076171876	630.0837402343751	-894.5462036132815	-401.411834716797	533.4104614257814	-891.824157714844	-384.2776489257814	496.3536682128907	-1000.324401855469	-510.5565490722657	414.1170349121095	-897.742370605469	-618.6358032226564	444.2162475585939	-905.365661621094	-597.4614257812501	404.1927490234376	-893.9463500976565	-622.2319946289064	355.1392822265626	-919.8016357421877	-755.3943481445314	341.5697631835938	-921.552917480469	-710.1442871093751	317.2822875976563	-990.0449218750002	-794.4255981445315	377.2122192382813	-986.6243286132815	-725.5146484375001	172.9149627685547	-972.2695922851565	-736.1936645507814	169.3530578613282	-921.3989868164065	-785.0281982421877	202.8270874023438	-889.2595825195315	-4216.850585937501	853.0694580078127	-3944.763671875001	nan	nan	nan	nan	nan	nan	
320	1.595	-143.7615509033203	1737.801391601563	-1122.618286132813	-317.3959045410157	1658.369262695313	-1193.857543945313	-294.5246276855469	1664.083740234375	-1042.278076171875	-351.7821655273438	1526.925903320313	-1126.7080078125	-426.6068115234376	1228.786499023438	-1094.41796875	-197.8636474609376	1455.573120117188	-1131.62255859375	-278.3588256835938	1532.861083984375	-1265.232421875	-171.9400177001953	1516.0498046875	-1391.150146484375	-129.6605682373047	1532.80908203125	-1373.49609375	-113.9668579101563	1517.188720703125	-1430.256225585938	-69.25743103027345	1515.0185546875	-1448.364135742188	-30.54313850402833	1446.857055664063	-1414.38720703125	210.2867584228516	1544.923217773438	-1463.76025390625	186.4065856933594	1552.57666015625	-1532.857055664063	265.1706542968751	1596.198974609375	-1476.307983398438	-263.6387634277344	1551.202392578125	-1010.661315917969	-120.1094436645508	1552.85546875	-891.7881469726565	-102.9434204101563	1578.3310546875	-932.0025024414065	-54.86647796630861	1578.735961914063	-897.5930786132815	-9.964088439941408	1586.756591796875	-898.9519042968752	15.48104667663575	1507.516235351563	-919.9335937500002	251.1410675048829	1604.932739257813	-981.9588012695315	251.7666625976563	1626.428344726563	-909.573181152344	326.0072326660157	1634.013549804688	-994.3914794921877	-286.4291992187501	1015.813049316406	-1192.5966796875	-298.0519714355469	1010.806213378906	-966.8150634765627	-456.2741088867189	1119.3095703125	-1089.290405273438	-475.2119445800782	1096.321655273438	-1117.53564453125	-481.2154846191407	1096.075805664063	-1063.327758789063	-366.6862487792969	815.0681762695315	-1254.260498046875	-315.0012817382813	749.3574218750001	-1239.315063476563	-271.6865539550782	763.2655029296876	-1223.069580078125	-331.5995788574219	690.7141113281251	-1226.489135742188	-285.8461303710938	524.3790893554689	-1187.464233398438	-287.7605590820313	518.4643554687501	-1069.316772460938	-277.2613220214844	337.8984680175782	-1111.42724609375	-324.8247375488282	294.0770263671876	-1172.324096679688	-289.7959594726563	289.4875488281251	-1143.826049804688	-304.0938720703126	216.3191986083985	-1103.754028320313	-371.6519470214844	126.2125015258789	-1137.925170898438	-341.4815979003907	137.905014038086	-1054.1669921875	-441.4749450683595	111.494873046875	-1098.377197265625	-239.0197296142579	63.11830139160158	-1051.051635742188	-227.3824768066407	54.85194396972658	-1094.778564453125	-270.2192382812501	39.65866470336915	-1152.34326171875	-420.7354431152345	762.5953369140626	-891.2208251953127	-380.3319091796876	710.7818603515626	-880.6785278320315	-347.2461853027344	713.5773925781251	-880.9126586914065	-401.7926025390626	629.6851196289064	-894.597351074219	-401.6575317382814	533.1473388671876	-891.8259277343752	-384.7408447265626	496.050750732422	-1000.286437988281	-510.7807922363282	413.7108154296876	-897.711120605469	-618.8813476562501	444.1016540527345	-905.2341918945315	-597.8684692382814	403.9833984375001	-893.7727661132815	-622.5884399414064	354.7665100097657	-919.6758422851565	-755.8645629882814	341.3734130859376	-921.297546386719	-710.5415039062501	317.1314697265626	-989.964050292969	-794.7180175781252	377.0797119140626	-986.4871215820315	-726.0095825195314	172.869384765625	-972.2657470703127	-736.5911254882814	169.1826934814453	-921.370056152344	-785.4524536132815	202.6931915283204	-889.1211547851565	-4216.759277343751	853.0731201171877	-3944.753173828126	nan	nan	nan	nan	nan	nan	
321	1.6	-143.5758514404297	1737.185668945313	-1122.551147460938	-317.0012512207032	1657.877807617188	-1193.979370117188	-294.2156982421876	1663.483154296875	-1042.326293945313	-351.5127868652344	1526.506469726563	-1126.8466796875	-426.862518310547	1228.623046875	-1094.330688476563	-197.8755035400391	1454.730590820313	-1131.713134765625	-278.1277160644532	1532.444580078125	-1265.257934570313	-171.6552276611328	1515.753051757813	-1391.12939453125	-129.3381500244141	1532.378784179688	-1373.481811523438	-113.5821838378907	1516.7353515625	-1430.085205078125	-69.00254821777345	1514.767211914063	-1448.313720703125	-30.11705970764161	1446.684814453125	-1414.347900390625	210.9441833496094	1544.65234375	-1464.039306640625	186.5807037353516	1552.406127929688	-1533.017700195313	265.3564758300782	1596.03759765625	-1476.592529296875	-263.3136901855469	1550.781005859375	-1010.839904785156	-119.5886840820313	1552.565551757813	-892.1472778320315	-102.8067245483399	1577.833740234375	-932.1968383789065	-54.09938049316408	1578.368286132813	-898.140075683594	-9.296224594116213	1586.3525390625	-899.4348144531252	15.87408351898194	1507.014404296875	-920.239440917969	251.5579376220704	1604.510375976563	-982.4012451171877	252.2301788330079	1626.24169921875	-909.927185058594	326.4354858398438	1633.581787109375	-994.6898193359377	-286.8145141601563	1015.43359375	-1192.585571289063	-298.7441406250001	1010.337890625	-966.5349731445315	-456.6622619628907	1119.099365234375	-1089.14892578125	-475.6251525878907	1096.204833984375	-1117.416870117188	-481.8550720214845	1095.890380859375	-1063.212280273438	-367.0270385742188	814.8543090820315	-1254.14306640625	-315.2645568847657	749.1931762695314	-1239.0751953125	-272.0742797851563	763.2156372070314	-1223.040405273438	-331.7796325683594	690.4633178710939	-1226.427978515625	-285.0332946777344	524.2128906250001	-1187.246459960938	-287.5425720214844	518.4040527343751	-1069.328002929688	-277.1051940917969	337.9056701660157	-1111.455444335938	-324.7847595214844	294.0133056640626	-1172.316772460938	-289.5782165527344	289.2367248535157	-1143.928833007813	-303.9640197753907	216.2890014648438	-1103.809448242188	-371.6472778320313	126.2157821655274	-1137.930297851563	-341.3970031738282	137.9078674316407	-1054.22119140625	-441.4836730957032	111.4822845458985	-1098.347412109375	-239.0131225585938	63.11022186279298	-1051.0537109375	-227.4006042480469	54.78209686279298	-1094.776733398438	-270.2136535644532	39.66794967651368	-1152.362670898438	-421.3787841796876	762.1502075195314	-891.0892333984377	-380.8468933105469	710.4369506835939	-880.345397949219	-347.7722167968751	713.1697387695314	-880.695983886719	-402.0799560546876	629.4327392578126	-894.6135253906252	-401.9292602539064	532.7974243164064	-891.9147949218752	-385.0747680664064	495.761199951172	-1000.233215332031	-511.140350341797	413.5448608398439	-897.6088867187502	-619.2128906250001	443.9334716796876	-905.1289672851565	-598.2289428710939	403.7957153320314	-893.7349243164065	-623.1578979492189	354.6803283691407	-919.573669433594	-756.1929931640626	341.2835693359376	-921.2200927734377	-711.0532226562501	316.9966430664063	-989.811706542969	-795.2828369140627	376.8547058105469	-986.2258911132815	-726.5202636718751	172.7161712646485	-972.2958984375002	-736.9594726562501	169.08642578125	-921.227478027344	-785.8585205078127	202.4723052978516	-888.9417724609377	-4216.731933593751	853.077819824219	-3944.732666015626	nan	nan	nan	nan	nan	nan	
322	1.605	-143.2541656494141	1736.672119140625	-1122.680297851563	-316.5917053222657	1657.327026367188	-1194.037719726563	-294.3096923828126	1662.744384765625	-1042.031127929688	-351.2808227539063	1526.152221679688	-1126.930297851563	-427.1129150390626	1228.42724609375	-1094.230224609375	-197.7810211181641	1454.03271484375	-1131.791870117188	-277.8827819824219	1532.000854492188	-1265.280883789063	-171.5224914550782	1515.4970703125	-1391.080688476563	-129.1513214111328	1532.106079101563	-1373.387084960938	-113.2801055908203	1516.426635742188	-1430.125732421875	-68.73190307617189	1514.568237304688	-1448.288208007813	-30.11846923828126	1446.349853515625	-1413.901489257813	211.172592163086	1544.624389648438	-1464.192260742188	186.7311096191407	1552.255249023438	-1533.223754882813	265.4733886718751	1595.87841796875	-1476.815673828125	-262.9721679687501	1550.3515625	-1011.002685546875	-119.3712387084961	1552.177368164063	-892.3660888671877	-102.3989791870117	1577.51611328125	-932.5031738281252	-53.83409881591798	1577.961303710938	-898.4298095703127	-9.106185913085939	1586.024536132813	-899.7481689453127	16.36859321594239	1506.699829101563	-920.7572021484377	251.9043884277344	1604.209838867188	-982.7066040039065	252.613265991211	1626.040893554688	-910.226501464844	326.7384033203126	1633.183471679688	-995.0523681640627	-287.1748962402344	1015.010681152344	-1192.581787109375	-299.2641296386719	1009.926940917969	-966.4296875000002	-457.1168823242189	1118.962768554688	-1089.006958007813	-476.128387451172	1096.05419921875	-1117.30029296875	-482.326141357422	1095.736083984375	-1063.2802734375	-367.4444274902344	814.5969848632815	-1254.018676757813	-315.4343566894532	748.9961547851564	-1238.97265625	-272.2898864746094	763.1336059570314	-1222.879638671875	-331.9321899414063	690.5716552734376	-1225.497680664063	-285.4188232421876	524.2825927734376	-1187.310302734375	-287.3045654296876	518.4104003906251	-1069.271850585938	-276.9422607421876	337.8497009277344	-1111.40478515625	-324.6332702636719	294.0136718750001	-1172.218505859375	-289.5876159667969	289.0892333984376	-1143.900390625	-303.8619689941407	216.2057495117188	-1103.805053710938	-371.6511535644532	126.2233657836914	-1137.895141601563	-341.3826599121094	137.9040985107422	-1054.232177734375	-441.4967651367189	111.4553833007813	-1098.317749023438	-239.024887084961	63.14284515380861	-1051.055297851563	-227.4449462890626	54.77731704711915	-1094.748168945313	-270.2480773925782	39.59401321411134	-1152.336791992188	-421.5897521972657	761.9417114257814	-891.0506591796877	-381.2731323242188	709.8570556640626	-880.046569824219	-348.2106933593751	712.9017333984376	-880.572448730469	-402.5669860839845	629.0695800781251	-894.625671386719	-402.1741027832032	532.5096435546876	-891.9160766601565	-386.2435913085939	495.7659912109376	-1000.732299804688	-511.5880737304689	413.3683166503907	-897.458679199219	-619.5582275390626	443.7279663085939	-904.958923339844	-598.4860229492189	403.5773010253907	-893.696716308594	-623.5617065429689	354.3573608398438	-919.564880371094	-756.5749511718751	341.1758117675782	-921.1604003906252	-711.5335693359376	316.8616027832032	-989.7214965820315	-795.6649169921877	376.7191772460938	-986.1109008789065	-726.9617919921876	172.7578582763672	-972.3236083984377	-737.4511108398439	169.0096588134766	-921.0454101562502	-786.109313964844	202.3736572265626	-888.8596191406252	-4216.714843750001	853.0111083984377	-3944.760253906251	nan	nan	nan	nan	nan	nan	
